<svg xmlns="http://www.w3.org/2000/svg" viewBox="0 0 400 480" fill="none">
  <defs>
    <linearGradient id="indiaBlue" x1="0%" y1="0%" x2="100%" y2="100%">
      <stop offset="0%" stop-color="#2563EB"/>
      <stop offset="50%" stop-color="#3B82F6"/>
      <stop offset="100%" stop-color="#1D4ED8"/>
    </linearGradient>
  </defs>
  <!-- India outline traced from geographic coordinates -->
  <!-- Mapping: x=(lon-67.5)*13.3, y=(37-lat)*15.5 -->
  <path d="
    M 100,15
    C 105,12 112,10 118,12
    Q 125,14 130,18
    C 134,22 137,28 137,35
    Q 137,38 135,42
    C 133,48 130,55 128,60
    Q 125,66 120,70
    C 115,75 108,78 100,82
    Q 92,86 85,92
    C 78,98 72,105 65,112
    Q 58,120 50,130
    C 45,136 40,143 37,150
    Q 34,155 33,160
    C 30,168 27,176 22,184
    Q 18,192 14,200
    C 12,205 11,210 13,215
    Q 16,220 22,222
    C 28,224 34,222 38,218
    Q 42,214 44,210
    C 46,206 48,204 52,206
    Q 56,208 54,214
    C 52,220 48,226 42,230
    Q 36,234 30,237
    C 24,240 20,244 22,250
    Q 24,255 30,256
    C 36,257 42,254 48,250
    Q 54,246 58,244
    C 62,242 65,242 67,246
    Q 70,250 72,256
    C 74,262 75,268 74,274
    Q 73,280 72,286
    C 71,292 71,298 72,304
    Q 73,310 75,316
    C 77,322 80,328 82,334
    Q 85,340 87,346
    C 90,354 93,362 96,368
    Q 100,376 104,384
    C 107,390 110,396 113,402
    Q 117,410 120,416
    C 123,422 126,428 129,434
    Q 131,438 133,442
    C 135,446 136,449 135,452
    Q 134,455 131,454
    C 127,452 124,448 120,444
    Q 116,440 113,436
    C 108,430 104,426 102,428
    Q 100,430 102,434
    C 105,440 110,446 116,450
    Q 122,454 128,456
    C 134,458 138,458 142,454
    Q 146,450 150,444
    C 154,436 158,428 162,420
    Q 166,412 170,404
    C 173,398 176,392 180,386
    Q 186,376 192,368
    C 198,360 204,352 210,346
    Q 216,340 222,334
    C 228,328 234,322 240,316
    Q 246,310 252,304
    C 258,298 264,292 270,286
    Q 275,280 280,274
    C 284,268 287,262 289,256
    Q 291,250 290,244
    C 289,238 286,233 282,230
    Q 278,228 274,228
    C 268,229 264,232 262,236
    Q 260,240 262,244
    C 264,248 268,250 272,248
    Q 276,246 278,244
    C 280,240 282,236 285,234
    Q 290,230 296,226
    C 302,222 308,218 314,212
    Q 320,206 324,200
    C 328,194 332,186 336,180
    Q 340,174 344,168
    C 348,162 352,156 358,150
    Q 362,146 366,142
    C 370,138 374,134 378,130
    Q 382,126 386,122
    C 390,118 392,114 390,110
    Q 388,106 384,106
    C 378,107 372,110 366,115
    Q 360,120 354,126
    C 348,132 340,138 332,142
    Q 324,146 316,148
    C 308,150 300,148 294,144
    Q 288,140 283,135
    C 278,128 274,122 272,116
    Q 270,110 268,106
    C 266,100 262,95 256,92
    Q 250,90 244,90
    C 236,91 228,96 222,102
    Q 218,106 215,110
    C 212,114 208,116 204,114
    Q 200,112 198,108
    C 194,100 190,94 184,90
    Q 178,86 172,86
    C 166,87 160,90 155,94
    Q 150,98 146,100
    C 140,104 134,104 130,100
    Q 126,96 122,90
    C 118,82 114,74 110,66
    Q 106,58 103,48
    C 101,38 100,28 100,20
    Z
  " fill="url(#indiaBlue)" stroke="#1E40AF" stroke-width="1" stroke-linejoin="round"/>
  <!-- Subtle internal lines for state borders effect -->
  <g stroke="#ffffff" stroke-width="0.4" opacity="0.2" fill="none">
    <path d="M 85,92 Q 150,85 220,90 Q 290,96 340,110"/>
    <path d="M 50,155 Q 120,148 200,145 Q 270,142 330,150"/>
    <path d="M 35,210 Q 110,205 190,200 Q 260,196 310,205"/>
    <path d="M 72,286 Q 150,278 230,274 Q 290,270 330,278"/>
    <path d="M 90,346 Q 160,338 230,332 Q 280,328 310,335"/>
    <path d="M 120,416 Q 170,408 220,402 Q 260,396 290,404"/>
    <path d="M 160,90 Q 165,180 170,280 Q 175,370 170,440"/>
    <path d="M 240,92 Q 245,180 250,270 Q 255,340 252,400"/>
    <path d="M 310,148 Q 312,210 315,270 Q 318,320 316,360"/>
  </g>
</svg>
